<svg width="36" height="36" viewBox="0 0 36 36" fill="none" xmlns="http://www.w3.org/2000/svg">
<rect width="36" height="36" fill="white"/>
<path d="M6.63778 25V11.9091H11.8026C12.7955 11.9091 13.6413 12.0987 14.3402 12.478C15.0391 12.853 15.5717 13.375 15.9382 14.044C16.3089 14.7088 16.4943 15.4759 16.4943 16.3452C16.4943 17.2145 16.3068 17.9815 15.9318 18.6463C15.5568 19.3111 15.0135 19.8288 14.3018 20.1996C13.5945 20.5703 12.7379 20.7557 11.7322 20.7557H8.44034V18.5376H11.2848C11.8175 18.5376 12.2564 18.446 12.6016 18.2628C12.951 18.0753 13.2109 17.8175 13.3814 17.4893C13.5561 17.157 13.6435 16.7756 13.6435 16.3452C13.6435 15.9105 13.5561 15.5312 13.3814 15.2074C13.2109 14.8793 12.951 14.6257 12.6016 14.4467C12.2521 14.2635 11.8089 14.1719 11.272 14.1719H9.40554V25H6.63778ZM20.2071 11.9091L23.3712 21.8551H23.4926L26.6631 11.9091H29.7313L25.2185 25H21.6517L17.1326 11.9091H20.2071Z" fill="url(#paint0_linear_116_48)"/>
<defs>
<linearGradient id="paint0_linear_116_48" x1="18" y1="7" x2="18" y2="29" gradientUnits="userSpaceOnUse">
<stop stop-color="#6A9093"/>
<stop offset="1" stop-color="#393939"/>
</linearGradient>
</defs>
</svg>
